<svg viewBox="0 0 200 200" xmlns="http://www.w3.org/2000/svg">
  <!-- Background -->
  <rect width="200" height="200" fill="#FFE5EC" rx="20"/>
  
  <!-- Character -->
  <circle cx="100" cy="80" r="30" fill="#FFD9E8"/>
  
  <!-- Happy eyes -->
  <circle cx="90" cy="75" r="4" fill="#333"/>
  <circle cx="110" cy="75" r="4" fill="#333"/>
  
  <!-- Happy mouth -->
  <path d="M 95 85 Q 100 90 105 85" stroke="#FF69B4" stroke-width="2" fill="none" stroke-linecap="round"/>
  
  <!-- Blush -->
  <circle cx="75" cy="82" r="5" fill="#FFB6C1" opacity="0.7"/>
  <circle cx="125" cy="82" r="5" fill="#FFB6C1" opacity="0.7"/>
  
  <!-- Hand patting head -->
  <ellipse cx="75" cy="50" rx="8" ry="12" fill="#FFD9E8" transform="rotate(-30 75 50)"/>
  <circle cx="70" cy="45" r="6" fill="#FFD9E8"/>
  
  <!-- Body -->
  <rect x="75" y="110" width="50" height="55" fill="#FFB6C1" rx="10"/>
  
  <!-- Arms -->
  <rect x="50" y="115" width="25" height="15" fill="#FFD9E8" rx="7" transform="rotate(-20 62 122)"/>
  <rect x="125" y="115" width="25" height="15" fill="#FFD9E8" rx="7" transform="rotate(20 137 122)"/>
  
  <!-- Hearts floating around -->
  <path d="M 130 40 Q 125 35 120 40 Q 115 45 130 55 Q 145 45 140 40 Q 135 35 130 40" fill="#FF1493" opacity="0.6"/>
  <path d="M 50 60 Q 45 55 40 60 Q 35 65 50 75 Q 65 65 60 60 Q 55 55 50 60" fill="#FF1493" opacity="0.6"/>
</svg>